<svg xmlns="http://www.w3.org/2000/svg" width="17" height="16" viewBox="0 0 17 16" fill="none">
  <path fill-rule="evenodd" clip-rule="evenodd"
    d="M8.77661 15.6914C13.1075 15.6914 16.6184 12.1805 16.6184 7.84961C16.6184 3.5187 13.1075 0.0078125 8.77661 0.0078125C4.4457 0.0078125 0.934814 3.5187 0.934814 7.84961C0.934814 12.1805 4.4457 15.6914 8.77661 15.6914ZM12.9607 6.70847C13.2975 6.37161 13.2975 5.82546 12.9607 5.48857C12.6238 5.15172 12.0776 5.15172 11.7408 5.48857L7.75099 9.47837L5.81248 7.53989C5.47563 7.20301 4.92947 7.20301 4.59259 7.53989C4.25573 7.87675 4.25573 8.42291 4.59259 8.75979L7.14103 11.3082C7.47791 11.6451 8.02407 11.6451 8.36093 11.3082L12.9607 6.70847Z"
    fill="#FB00FF" />
</svg>